<?xml version="1.0" encoding="UTF-8"?>
<svg width="1200" height="900" viewBox="0 0 1200 900" xmlns="http://www.w3.org/2000/svg">
  <!-- Background gradient -->
  <defs>
    <linearGradient id="bg-gradient" x1="0%" y1="0%" x2="0%" y2="100%">
      <stop offset="0%" style="stop-color:#f9f9f9;stop-opacity:1" />
      <stop offset="100%" style="stop-color:#e5e5e5;stop-opacity:1" />
    </linearGradient>
  </defs>
  
  <!-- Background -->
  <rect width="1200" height="900" fill="url(#bg-gradient)" />
  
  <!-- Horizon line -->
  <line x1="0" y1="650" x2="1200" y2="650" stroke="#e0e0e0" stroke-width="2" />
  
  <!-- Distant mountains/skyline -->
  <path d="M0,650 L120,580 L180,620 L250,550 L320,600 L400,520 L480,580 L550,500 L650,580 L720,520 L800,600 L900,500 L1000,580 L1100,520 L1200,600 L1200,650 Z" fill="#f0f0f0" stroke="#e0e0e0" stroke-width="1" />
  
  <!-- Futuristic city skyline -->
  <!-- Main tall building -->
  <rect x="500" y="250" width="80" height="400" fill="#333333" />
  <rect x="510" y="270" width="60" height="360" fill="#444444" />
  <rect x="520" y="290" width="40" height="340" fill="#555555" />
  
  <!-- Antenna/spire -->
  <line x1="540" y1="250" x2="540" y2="150" stroke="#333333" stroke-width="6" />
  <circle cx="540" cy="150" r="10" fill="#333333" />
  
  <!-- Building windows pattern -->
  <g>
    <!-- Windows for main building -->
    <g>
      <rect x="515" y="280" width="10" height="15" fill="white" opacity="0.8" />
      <rect x="535" y="280" width="10" height="15" fill="white" opacity="0.8" />
      <rect x="555" y="280" width="10" height="15" fill="white" opacity="0.8" />
      
      <rect x="515" y="310" width="10" height="15" fill="white" opacity="0.8" />
      <rect x="535" y="310" width="10" height="15" fill="white" opacity="0.8" />
      <rect x="555" y="310" width="10" height="15" fill="white" opacity="0.8" />
      
      <rect x="515" y="340" width="10" height="15" fill="white" opacity="0.8" />
      <rect x="535" y="340" width="10" height="15" fill="white" opacity="0.8" />
      <rect x="555" y="340" width="10" height="15" fill="white" opacity="0.8" />
      
      <rect x="515" y="370" width="10" height="15" fill="white" opacity="0.8" />
      <rect x="535" y="370" width="10" height="15" fill="white" opacity="0.8" />
      <rect x="555" y="370" width="10" height="15" fill="white" opacity="0.8" />
      
      <rect x="515" y="400" width="10" height="15" fill="white" opacity="0.8" />
      <rect x="535" y="400" width="10" height="15" fill="white" opacity="0.8" />
      <rect x="555" y="400" width="10" height="15" fill="white" opacity="0.8" />
      
      <rect x="515" y="430" width="10" height="15" fill="white" opacity="0.8" />
      <rect x="535" y="430" width="10" height="15" fill="white" opacity="0.8" />
      <rect x="555" y="430" width="10" height="15" fill="white" opacity="0.8" />
      
      <rect x="515" y="460" width="10" height="15" fill="white" opacity="0.8" />
      <rect x="535" y="460" width="10" height="15" fill="white" opacity="0.8" />
      <rect x="555" y="460" width="10" height="15" fill="white" opacity="0.8" />
      
      <rect x="515" y="490" width="10" height="15" fill="white" opacity="0.8" />
      <rect x="535" y="490" width="10" height="15" fill="white" opacity="0.8" />
      <rect x="555" y="490" width="10" height="15" fill="white" opacity="0.8" />
      
      <rect x="515" y="520" width="10" height="15" fill="white" opacity="0.8" />
      <rect x="535" y="520" width="10" height="15" fill="white" opacity="0.8" />
      <rect x="555" y="520" width="10" height="15" fill="white" opacity="0.8" />
      
      <rect x="515" y="550" width="10" height="15" fill="white" opacity="0.8" />
      <rect x="535" y="550" width="10" height="15" fill="white" opacity="0.8" />
      <rect x="555" y="550" width="10" height="15" fill="white" opacity="0.8" />
      
      <rect x="515" y="580" width="10" height="15" fill="white" opacity="0.8" />
      <rect x="535" y="580" width="10" height="15" fill="white" opacity="0.8" />
      <rect x="555" y="580" width="10" height="15" fill="white" opacity="0.8" />
    </g>
  </g>
  
  <!-- Left side buildings -->
  <rect x="300" y="400" width="60" height="250" fill="#222222" />
  <rect x="310" y="420" width="40" height="210" fill="#333333" />
  
  <rect x="370" y="350" width="70" height="300" fill="#222222" />
  <rect x="380" y="370" width="50" height="260" fill="#333333" />
  
  <rect x="450" y="380" width="40" height="270" fill="#222222" />
  <rect x="460" y="400" width="20" height="230" fill="#333333" />
  
  <!-- Right side buildings -->
  <rect x="590" y="380" width="50" height="270" fill="#222222" />
  <rect x="600" y="400" width="30" height="230" fill="#333333" />
  
  <rect x="650" y="420" width="80" height="230" fill="#222222" />
  <rect x="660" y="440" width="60" height="190" fill="#333333" />
  
  <rect x="740" y="450" width="60" height="200" fill="#222222" />
  <rect x="750" y="470" width="40" height="160" fill="#333333" />
  
  <!-- Circular building -->
  <circle cx="850" cy="550" r="100" fill="#222222" />
  <circle cx="850" cy="550" r="80" fill="#333333" />
  <circle cx="850" cy="550" r="60" fill="#444444" />
  
  <!-- Windows for circular building -->
  <g>
    <rect x="830" y="480" width="10" height="10" fill="white" opacity="0.8" />
    <rect x="850" y="480" width="10" height="10" fill="white" opacity="0.8" />
    <rect x="870" y="480" width="10" height="10" fill="white" opacity="0.8" />
    
    <rect x="810" y="500" width="10" height="10" fill="white" opacity="0.8" />
    <rect x="830" y="500" width="10" height="10" fill="white" opacity="0.8" />
    <rect x="850" y="500" width="10" height="10" fill="white" opacity="0.8" />
    <rect x="870" y="500" width="10" height="10" fill="white" opacity="0.8" />
    <rect x="890" y="500" width="10" height="10" fill="white" opacity="0.8" />
    
    <rect x="810" y="520" width="10" height="10" fill="white" opacity="0.8" />
    <rect x="830" y="520" width="10" height="10" fill="white" opacity="0.8" />
    <rect x="850" y="520" width="10" height="10" fill="white" opacity="0.8" />
    <rect x="870" y="520" width="10" height="10" fill="white" opacity="0.8" />
    <rect x="890" y="520" width="10" height="10" fill="white" opacity="0.8" />
    
    <rect x="810" y="540" width="10" height="10" fill="white" opacity="0.8" />
    <rect x="830" y="540" width="10" height="10" fill="white" opacity="0.8" />
    <rect x="850" y="540" width="10" height="10" fill="white" opacity="0.8" />
    <rect x="870" y="540" width="10" height="10" fill="white" opacity="0.8" />
    <rect x="890" y="540" width="10" height="10" fill="white" opacity="0.8" />
    
    <rect x="810" y="560" width="10" height="10" fill="white" opacity="0.8" />
    <rect x="830" y="560" width="10" height="10" fill="white" opacity="0.8" />
    <rect x="850" y="560" width="10" height="10" fill="white" opacity="0.8" />
    <rect x="870" y="560" width="10" height="10" fill="white" opacity="0.8" />
    <rect x="890" y="560" width="10" height="10" fill="white" opacity="0.8" />
    
    <rect x="810" y="580" width="10" height="10" fill="white" opacity="0.8" />
    <rect x="830" y="580" width="10" height="10" fill="white" opacity="0.8" />
    <rect x="850" y="580" width="10" height="10" fill="white" opacity="0.8" />
    <rect x="870" y="580" width="10" height="10" fill="white" opacity="0.8" />
    <rect x="890" y="580" width="10" height="10" fill="white" opacity="0.8" />
    
    <rect x="830" y="600" width="10" height="10" fill="white" opacity="0.8" />
    <rect x="850" y="600" width="10" height="10" fill="white" opacity="0.8" />
    <rect x="870" y="600" width="10" height="10" fill="white" opacity="0.8" />
  </g>
  
  <!-- Floating platforms -->
  <ellipse cx="400" cy="300" rx="60" ry="20" fill="#333333" />
  <rect x="380" y="280" width="40" height="20" fill="#444444" />
  
  <ellipse cx="700" cy="350" rx="80" ry="25" fill="#333333" />
  <rect x="670" y="325" width="60" height="25" fill="#444444" />
  
  <!-- Connecting bridges -->
  <path d="M440,300 C500,280 520,270 540,250" stroke="#333333" stroke-width="5" fill="none" />
  <path d="M700,350 C650,320 600,300 580,250" stroke="#333333" stroke-width="5" fill="none" />
  
  <!-- Flying vehicles -->
  <ellipse cx="300" cy="200" rx="20" ry="8" fill="#333333" />
  <ellipse cx="300" cy="200" rx="15" ry="5" fill="#444444" />
  
  <ellipse cx="900" cy="250" rx="25" ry="10" fill="#333333" />
  <ellipse cx="900" cy="250" rx="18" ry="6" fill="#444444" />
  
  <ellipse cx="600" cy="180" rx="15" ry="6" fill="#333333" />
  <ellipse cx="600" cy="180" rx="10" ry="4" fill="#444444" />
  
  <!-- Light beams -->
  <line x1="540" y1="200" x2="540" y2="250" stroke="white" stroke-width="1" opacity="0.3" />
  <line x1="850" y1="450" x2="850" y2="550" stroke="white" stroke-width="1" opacity="0.3" />
  
  <!-- Ground level details -->
  <rect x="0" y="650" width="1200" height="250" fill="#222222" />
  
  <!-- Roads -->
  <rect x="300" y="650" width="600" height="30" fill="#333333" />
  <rect x="540" y="650" width="20" height="250" fill="#333333" />
  
  <!-- Road markings -->
  <line x1="540" y1="665" x2="600" y2="665" stroke="white" stroke-width="2" stroke-dasharray="10,10" />
  <line x1="480" y1="665" x2="540" y2="665" stroke="white" stroke-width="2" stroke-dasharray="10,10" />
  <line x1="550" y1="680" x2="550" y2="730" stroke="white" stroke-width="2" stroke-dasharray="10,10" />
  <line x1="550" y1="750" x2="550" y2="800" stroke="white" stroke-width="2" stroke-dasharray="10,10" />
  
  <!-- Title -->
  <text x="600" y="100" font-family="Arial" font-size="48" font-weight="bold" text-anchor="middle" fill="#333333">未来城市</text>
  <text x="600" y="150" font-family="Arial" font-size="24" text-anchor="middle" fill="#666666">融合东方美学与科技元素的城市设计</text>
</svg>
