<svg xmlns="http://www.w3.org/2000/svg" width="100" height="100" viewBox="0 0 100 100" fill="none">
  <path d="M85 35H70V15C70 13.9 69.1 13 68 13H32C30.9 13 30 13.9 30 15V35H15C13.9 35 13 35.9 13 37V85C13 86.1 13.9 87 15 87H85C86.1 87 87 86.1 87 85V37C87 35.9 86.1 35 85 35ZM35 20H65V35H35V20ZM80 80H20V42H80V80Z" fill="black"/>
  <path d="M30 50H50V70H30V50Z" fill="black"/>
  <path d="M55 50H70V55H55V50Z" fill="black"/>
  <path d="M55 60H70V65H55V60Z" fill="black"/>
  <path d="M55 70H70V75H55V70Z" fill="black"/>
</svg>
