<?xml version="1.0" encoding="UTF-8"?>
<svg width="800" height="600" viewBox="0 0 800 600" fill="none" xmlns="http://www.w3.org/2000/svg">
  <!-- 背景 -->
  <rect width="800" height="600" fill="#f8f9fa"/>
  
  <!-- 数字天空艺术画布 -->
  <rect x="150" y="100" width="500" height="400" fill="#1a202c" stroke="#e2e8f0" stroke-width="4"/>
  
  <!-- 星空效果 -->
  <circle cx="200" cy="150" r="2" fill="#ffffff"/>
  <circle cx="250" cy="180" r="1" fill="#ffffff"/>
  <circle cx="300" cy="140" r="2" fill="#ffffff"/>
  <circle cx="350" cy="170" r="1" fill="#ffffff"/>
  <circle cx="400" cy="130" r="2" fill="#ffffff"/>
  <circle cx="450" cy="160" r="1" fill="#ffffff"/>
  <circle cx="500" cy="150" r="2" fill="#ffffff"/>
  <circle cx="550" cy="180" r="1" fill="#ffffff"/>
  
  <circle cx="220" cy="220" r="1" fill="#ffffff"/>
  <circle cx="270" cy="240" r="2" fill="#ffffff"/>
  <circle cx="320" cy="210" r="1" fill="#ffffff"/>
  <circle cx="370" cy="230" r="2" fill="#ffffff"/>
  <circle cx="420" cy="200" r="1" fill="#ffffff"/>
  <circle cx="470" cy="220" r="2" fill="#ffffff"/>
  <circle cx="520" cy="240" r="1" fill="#ffffff"/>
  <circle cx="570" cy="210" r="2" fill="#ffffff"/>
  
  <circle cx="190" cy="290" r="2" fill="#ffffff"/>
  <circle cx="240" cy="310" r="1" fill="#ffffff"/>
  <circle cx="290" cy="280" r="2" fill="#ffffff"/>
  <circle cx="340" cy="300" r="1" fill="#ffffff"/>
  <circle cx="390" cy="270" r="2" fill="#ffffff"/>
  <circle cx="440" cy="290" r="1" fill="#ffffff"/>
  <circle cx="490" cy="310" r="2" fill="#ffffff"/>
  <circle cx="540" cy="280" r="1" fill="#ffffff"/>
  
  <circle cx="210" cy="360" r="1" fill="#ffffff"/>
  <circle cx="260" cy="380" r="2" fill="#ffffff"/>
  <circle cx="310" cy="350" r="1" fill="#ffffff"/>
  <circle cx="360" cy="370" r="2" fill="#ffffff"/>
  <circle cx="410" cy="340" r="1" fill="#ffffff"/>
  <circle cx="460" cy="360" r="2" fill="#ffffff"/>
  <circle cx="510" cy="380" r="1" fill="#ffffff"/>
  <circle cx="560" cy="350" r="2" fill="#ffffff"/>
  
  <circle cx="230" cy="430" r="2" fill="#ffffff"/>
  <circle cx="280" cy="450" r="1" fill="#ffffff"/>
  <circle cx="330" cy="420" r="2" fill="#ffffff"/>
  <circle cx="380" cy="440" r="1" fill="#ffffff"/>
  <circle cx="430" cy="410" r="2" fill="#ffffff"/>
  <circle cx="480" cy="430" r="1" fill="#ffffff"/>
  <circle cx="530" cy="450" r="2" fill="#ffffff"/>
  <circle cx="580" cy="420" r="1" fill="#ffffff"/>
  
  <!-- 数字山脉 -->
  <path d="M150 400 L200 350 L250 380 L300 330 L350 370 L400 320 L450 360 L500 310 L550 340 L600 290 L650 330 L650 500 L150 500 Z" fill="#2d3748"/>
  
  <!-- 数字月亮 -->
  <circle cx="250" cy="200" r="40" fill="#a0aec0"/>
  <circle cx="270" cy="180" r="30" fill="#1a202c"/>
  
  <!-- 数字云朵 -->
  <ellipse cx="450" cy="180" rx="50" ry="20" fill="#4a5568" opacity="0.7"/>
  <ellipse cx="480" cy="170" rx="40" ry="15" fill="#4a5568" opacity="0.7"/>
  <ellipse cx="500" cy="185" rx="35" ry="15" fill="#4a5568" opacity="0.7"/>
  
  <ellipse cx="350" cy="250" rx="45" ry="18" fill="#4a5568" opacity="0.5"/>
  <ellipse cx="380" cy="240" rx="35" ry="14" fill="#4a5568" opacity="0.5"/>
  <ellipse cx="400" cy="255" rx="30" ry="14" fill="#4a5568" opacity="0.5"/>
  
  <!-- 数字飞鸟 -->
  <path d="M420 300 L440 290 L460 300" stroke="#ffffff" stroke-width="2" fill="none"/>
  <path d="M520 280 L540 270 L560 280" stroke="#ffffff" stroke-width="2" fill="none"/>
  <path d="M320 320 L340 310 L360 320" stroke="#ffffff" stroke-width="2" fill="none"/>
  
  <!-- 艺术家签名 -->
  <text x="550" y="480" font-family="Arial" font-style="italic" font-size="16" fill="#a0aec0">Digital Sky by A. Wong</text>
</svg>
