<?xml version="1.0" encoding="UTF-8"?>
<svg width="1200" height="600" viewBox="0 0 1200 600" fill="none" xmlns="http://www.w3.org/2000/svg">
  <!-- 背景 -->
  <rect width="1200" height="600" fill="#f8f9fa"/>
  
  <!-- 订单管理主视觉 -->
  <rect x="300" y="150" width="600" height="300" rx="8" ry="8" fill="#ffffff" stroke="#e2e8f0" stroke-width="2"/>
  
  <!-- 订单列表 -->
  <rect x="330" y="180" width="540" height="50" rx="4" ry="4" fill="#f8f9fa" stroke="#e2e8f0" stroke-width="1"/>
  <rect x="350" y="195" width="20" height="20" rx="4" ry="4" fill="#1a202c"/>
  <rect x="390" y="195" width="150" height="8" rx="2" ry="2" fill="#2d3748"/>
  <rect x="390" y="210" width="100" height="6" rx="2" ry="2" fill="#a0aec0"/>
  <rect x="700" y="195" width="80" height="20" rx="10" ry="10" fill="#e6f7ff" stroke="#1890ff" stroke-width="1"/>
  <text x="740" y="210" font-family="Arial" font-size="12" text-anchor="middle" fill="#1890ff">进行中</text>
  <rect x="800" y="195" width="50" height="20" rx="4" ry="4" fill="#f8f9fa" stroke="#e2e8f0" stroke-width="1"/>
  <text x="825" y="210" font-family="Arial" font-size="12" text-anchor="middle" fill="#4a5568">详情</text>
  
  <rect x="330" y="240" width="540" height="50" rx="4" ry="4" fill="#f8f9fa" stroke="#e2e8f0" stroke-width="1"/>
  <rect x="350" y="255" width="20" height="20" rx="4" ry="4" fill="#1a202c"/>
  <rect x="390" y="255" width="180" height="8" rx="2" ry="2" fill="#2d3748"/>
  <rect x="390" y="270" width="120" height="6" rx="2" ry="2" fill="#a0aec0"/>
  <rect x="700" y="255" width="80" height="20" rx="10" ry="10" fill="#f6ffed" stroke="#52c41a" stroke-width="1"/>
  <text x="740" y="270" font-family="Arial" font-size="12" text-anchor="middle" fill="#52c41a">已完成</text>
  <rect x="800" y="255" width="50" height="20" rx="4" ry="4" fill="#f8f9fa" stroke="#e2e8f0" stroke-width="1"/>
  <text x="825" y="270" font-family="Arial" font-size="12" text-anchor="middle" fill="#4a5568">详情</text>
  
  <rect x="330" y="300" width="540" height="50" rx="4" ry="4" fill="#f8f9fa" stroke="#e2e8f0" stroke-width="1"/>
  <rect x="350" y="315" width="20" height="20" rx="4" ry="4" fill="#1a202c"/>
  <rect x="390" y="315" width="160" height="8" rx="2" ry="2" fill="#2d3748"/>
  <rect x="390" y="330" width="110" height="6" rx="2" ry="2" fill="#a0aec0"/>
  <rect x="700" y="315" width="80" height="20" rx="10" ry="10" fill="#fff2e8" stroke="#fa541c" stroke-width="1"/>
  <text x="740" y="330" font-family="Arial" font-size="12" text-anchor="middle" fill="#fa541c">待处理</text>
  <rect x="800" y="315" width="50" height="20" rx="4" ry="4" fill="#f8f9fa" stroke="#e2e8f0" stroke-width="1"/>
  <text x="825" y="330" font-family="Arial" font-size="12" text-anchor="middle" fill="#4a5568">详情</text>
  
  <rect x="330" y="360" width="540" height="50" rx="4" ry="4" fill="#f8f9fa" stroke="#e2e8f0" stroke-width="1"/>
  <rect x="350" y="375" width="20" height="20" rx="4" ry="4" fill="#1a202c"/>
  <rect x="390" y="375" width="140" height="8" rx="2" ry="2" fill="#2d3748"/>
  <rect x="390" y="390" width="90" height="6" rx="2" ry="2" fill="#a0aec0"/>
  <rect x="700" y="375" width="80" height="20" rx="10" ry="10" fill="#f9f0ff" stroke="#722ed1" stroke-width="1"/>
  <text x="740" y="390" font-family="Arial" font-size="12" text-anchor="middle" fill="#722ed1">已取消</text>
  <rect x="800" y="375" width="50" height="20" rx="4" ry="4" fill="#f8f9fa" stroke="#e2e8f0" stroke-width="1"/>
  <text x="825" y="390" font-family="Arial" font-size="12" text-anchor="middle" fill="#4a5568">详情</text>
  
  <!-- 标题和筛选器 -->
  <text x="600" y="130" font-family="Arial" font-size="24" font-weight="bold" text-anchor="middle" fill="#1a202c">订单管理系统</text>
  
  <rect x="330" y="470" width="100" height="30" rx="15" ry="15" fill="#1a202c"/>
  <text x="380" y="490" font-family="Arial" font-size="14" text-anchor="middle" fill="#ffffff">全部</text>
  
  <rect x="440" y="470" width="100" height="30" rx="15" ry="15" fill="#ffffff" stroke="#1a202c" stroke-width="1"/>
  <text x="490" y="490" font-family="Arial" font-size="14" text-anchor="middle" fill="#1a202c">待处理</text>
  
  <rect x="550" y="470" width="100" height="30" rx="15" ry="15" fill="#ffffff" stroke="#1a202c" stroke-width="1"/>
  <text x="600" y="490" font-family="Arial" font-size="14" text-anchor="middle" fill="#1a202c">进行中</text>
  
  <rect x="660" y="470" width="100" height="30" rx="15" ry="15" fill="#ffffff" stroke="#1a202c" stroke-width="1"/>
  <text x="710" y="490" font-family="Arial" font-size="14" text-anchor="middle" fill="#1a202c">已完成</text>
  
  <rect x="770" y="470" width="100" height="30" rx="15" ry="15" fill="#ffffff" stroke="#1a202c" stroke-width="1"/>
  <text x="820" y="490" font-family="Arial" font-size="14" text-anchor="middle" fill="#1a202c">已取消</text>
</svg>
